<?xml version="1.0" standalone="no"?>
<!DOCTYPE svg PUBLIC "-//W3C//DTD SVG 20010904//EN"
 "http://www.w3.org/TR/2001/REC-SVG-20010904/DTD/svg10.dtd">
<svg version="1.0" xmlns="http://www.w3.org/2000/svg"
 width="512.000000pt" height="512.000000pt" viewBox="0 0 512.000000 512.000000"
 preserveAspectRatio="xMidYMid meet">
<metadata>
Created by potrace 1.16, written by Peter Selinger 2001-2019
</metadata>
<g transform="translate(0.000000,512.000000) scale(0.100000,-0.100000)"
fill="#000000" stroke="none">
<path d="M2384 4390 c-238 -27 -478 -109 -574 -196 -53 -48 -53 -80 0 -170 83
-142 133 -334 128 -490 l-3 -88 -42 -8 c-83 -14 -128 -69 -101 -124 17 -37 96
-85 139 -86 19 0 71 11 116 25 150 47 279 60 548 54 251 -6 329 -16 469 -66
l59 -20 49 21 c118 51 115 143 -7 186 l-50 18 2 95 c5 177 47 349 124 502 21
43 39 87 39 99 0 54 -148 150 -305 197 -154 48 -424 71 -591 51z m465 -70
c129 -26 245 -70 291 -110 l35 -30 -60 21 c-82 28 -276 67 -399 81 -184 20
-462 -7 -591 -57 -43 -16 -44 -17 85 10 342 72 840 10 840 -104 0 -42 -98 -64
-365 -81 -88 -6 -240 -18 -337 -27 l-176 -17 23 -47 c14 -26 32 -75 42 -109
l17 -61 45 5 c25 3 83 8 127 12 l81 6 5 -74 c2 -40 2 -92 0 -115 l-4 -41 -91
-7 c-51 -3 -137 -13 -192 -21 -55 -9 -125 -18 -156 -21 l-56 -5 -6 93 c-3 52
-15 124 -25 161 l-19 67 30 -17 c16 -9 46 -32 65 -50 l35 -33 -37 -38 c-47
-48 -46 -75 4 -79 19 -2 40 -10 47 -19 10 -13 17 -14 43 -3 46 19 45 29 -2 24
-24 -2 -37 -1 -30 2 24 11 42 63 42 118 0 80 -73 266 -104 266 -68 0 -216 79
-216 115 0 50 244 155 440 189 132 24 145 24 310 21 108 -2 186 -10 259 -25z
m336 -199 c3 -6 -17 -76 -44 -158 -50 -151 -81 -296 -81 -387 0 -70 -9 -82
-46 -64 -29 13 -29 15 -26 88 7 142 55 317 128 463 32 62 54 81 69 58z m-405
-611 c90 -15 202 -41 198 -46 -2 -2 -71 6 -153 16 -217 28 -497 26 -735 -5
-19 -2 -1 4 40 15 41 11 111 24 155 29 99 12 407 6 495 -9z m-516 -106 c143
-18 297 -18 454 2 235 29 429 21 486 -21 30 -22 15 -26 -39 -10 -67 21 -196
19 -350 -5 -71 -11 -197 -23 -280 -26 -135 -6 -166 -4 -310 21 -183 32 -302
36 -357 12 -41 -17 -49 -10 -19 17 41 37 182 41 415 10z"/>
<path d="M2236 3279 c-140 -18 -315 -73 -364 -114 -24 -20 -40 -23 -134 -27
-132 -4 -148 -14 -148 -95 l0 -53 -38 0 c-20 0 -53 -4 -71 -10 -59 -17 -121
-90 -121 -141 0 -12 -8 -31 -17 -42 -16 -16 -18 -45 -21 -218 l-4 -199 -74 0
c-88 0 -108 -8 -123 -52 -16 -46 -24 -304 -13 -441 11 -151 18 -160 130 -167
l77 -5 5 -175 c5 -161 7 -178 28 -213 13 -20 43 -48 66 -62 41 -24 49 -25 219
-25 149 0 177 -2 177 -15 0 -12 -27 -15 -162 -17 -146 -3 -163 -5 -166 -20 -3
-17 10 -18 172 -18 167 0 176 -1 176 -19 0 -11 4 -21 10 -23 5 -1 332 -2 726
0 709 2 716 2 711 22 -5 19 0 20 179 20 177 0 184 1 184 20 0 19 -7 20 -167
20 -180 0 -273 7 -273 21 0 5 95 9 210 9 225 0 258 6 308 53 55 51 57 60 62
372 l5 290 52 3 c29 2 57 9 63 17 18 21 31 159 24 243 -9 92 -24 114 -90 121
l-49 6 -3 217 -2 217 47 3 c40 3 48 6 48 23 0 17 -8 20 -47 23 -46 3 -48 4
-58 43 -13 47 -63 107 -96 115 -18 5 -24 13 -24 35 0 16 5 29 11 29 6 0 9 16
7 37 -3 31 -9 39 -41 56 -48 25 -197 35 -250 18 -38 -13 -56 -43 -38 -65 5 -6
8 -22 4 -34 -4 -17 -1 -22 16 -22 14 0 19 -5 14 -16 -4 -11 -17 -14 -47 -12
-40 3 -41 4 -59 58 -10 30 -28 65 -39 77 -45 48 -243 111 -418 133 -100 12
-475 11 -574 -1z m543 -49 c144 -21 278 -56 365 -94 52 -23 55 -26 71 -83 9
-32 24 -64 33 -70 11 -9 58 -13 146 -13 188 0 252 -12 290 -50 l31 -30 3 -741
c3 -835 7 -790 -72 -829 -40 -19 -61 -20 -339 -20 -257 0 -297 2 -297 15 0 11
13 15 53 16 305 3 544 12 559 20 11 6 28 25 38 42 19 31 20 56 20 667 0 415
-4 648 -11 673 -18 67 -48 77 -232 77 -123 0 -158 -3 -155 -12 5 -16 88 -25
221 -27 153 -2 137 76 137 -690 0 -357 -3 -657 -6 -666 -16 -40 -52 -45 -314
-45 -137 0 -250 4 -250 8 0 28 30 32 247 32 237 0 269 5 293 49 6 13 10 196
10 519 0 477 -1 501 -19 523 -18 23 -27 24 -158 29 l-138 5 -18 55 c-10 30
-41 138 -68 239 -27 100 -54 192 -60 202 -18 35 -135 81 -304 119 -132 30
-403 38 -553 16 -109 -16 -261 -55 -312 -79 -20 -10 -33 -35 -61 -115 -25 -69
-47 -114 -67 -135 -25 -26 -62 -100 -62 -124 0 -2 42 35 94 82 102 95 151 131
236 174 67 34 155 64 173 58 6 -2 -13 -12 -43 -22 -101 -33 -208 -94 -298
-169 -49 -41 -95 -84 -103 -94 -8 -11 -42 -52 -77 -92 -44 -50 -60 -76 -53
-83 7 -7 1 -18 -18 -36 -31 -29 -65 -111 -89 -216 -20 -87 -22 -489 -4 -574
14 -60 10 -73 -16 -48 -15 16 -17 51 -17 392 l0 373 24 26 c13 14 39 30 57 36
39 13 45 30 12 30 -36 0 -88 -38 -104 -75 -19 -47 -21 -756 -1 -795 7 -13 30
-35 52 -47 29 -16 42 -31 50 -60 8 -28 25 -48 70 -83 l60 -45 -145 -3 c-134
-2 -145 -1 -164 18 -21 20 -21 28 -21 646 l0 626 37 34 38 34 119 0 c117 0
171 9 171 30 0 6 -62 10 -175 10 -160 0 -175 -2 -184 -19 -6 -10 -8 -21 -4
-24 3 -4 -2 -18 -11 -31 -14 -23 -16 -88 -18 -608 l-3 -583 -3 570 c-3 599 4
750 37 778 19 17 65 25 235 37 82 5 134 13 142 22 7 7 20 40 29 73 8 33 23 66
32 72 45 34 262 94 398 112 127 16 322 12 464 -9z m81 -103 c127 -30 249 -73
272 -95 9 -10 32 -78 52 -153 54 -207 45 -213 -25 -17 -22 60 -44 118 -49 128
-11 20 -150 72 -270 100 -245 56 -508 44 -761 -36 -73 -23 -79 -27 -98 -67
-11 -23 -23 -54 -26 -69 -4 -14 -15 -34 -26 -44 -24 -21 -25 -27 15 86 39 112
42 114 206 155 155 38 216 44 420 40 153 -3 203 -8 290 -28z m737 -12 c44 -19
39 -28 -8 -15 -18 6 -72 10 -119 10 -59 0 -80 3 -70 10 24 15 156 12 197 -5z
m-1767 -15 c0 -15 -13 -18 -107 -24 -67 -4 -83 -3 -83 9 0 18 20 22 113 24 47
1 77 -3 77 -9z m923 -89 c169 -61 353 -195 429 -311 l29 -45 -32 40 c-90 111
-217 208 -355 272 -106 49 -174 64 -324 73 l-135 8 150 -2 c141 -3 155 -5 238
-35z m831 13 c9 -8 16 -16 16 -17 0 -1 -38 -1 -84 1 -69 3 -84 6 -79 18 8 21
126 19 147 -2z m-1774 -3 c0 -8 -80 -21 -137 -21 -35 0 -45 15 -15 23 32 8
152 7 152 -2z m915 -73 c136 -49 236 -111 339 -213 70 -69 138 -164 156 -221
20 -58 5 -49 -43 28 -111 178 -269 305 -462 369 -61 21 -89 24 -220 24 -131 0
-159 -3 -220 -23 -207 -69 -375 -214 -479 -412 -46 -88 -73 -179 -85 -292 -38
-337 132 -643 444 -799 214 -106 441 -106 660 0 221 108 399 327 455 561 33
140 24 347 -20 455 -7 17 -14 50 -15 75 l-3 45 24 -54 c106 -239 89 -519 -47
-757 -24 -43 -79 -115 -122 -160 -128 -136 -244 -208 -414 -256 -101 -29 -276
-31 -373 -4 -284 78 -512 300 -602 586 -20 65 -23 94 -22 225 0 136 3 158 28
235 39 118 85 205 154 291 103 130 195 204 327 265 118 54 171 64 330 60 117
-3 151 -8 210 -28z m-1326 -50 c-6 -12 -15 -33 -20 -47 -5 -17 -8 -20 -8 -8
-1 18 25 77 35 77 2 0 -1 -10 -7 -22z m1261 6 c36 -8 106 -34 155 -59 213
-104 377 -304 431 -525 18 -72 17 -257 0 -342 -79 -372 -482 -669 -841 -619
-324 45 -575 271 -656 591 -18 71 -21 103 -16 205 6 142 23 211 78 322 103
211 311 382 520 427 86 19 249 19 329 0z m-1272 -746 c-2 -334 -6 -513 -13
-513 -7 0 -11 179 -13 513 -2 452 0 512 13 512 13 0 15 -60 13 -512z m2160
320 c8 -8 12 -47 11 -112 0 -56 -3 -95 -6 -88 -9 23 -62 42 -118 42 -30 0 -55
2 -55 4 0 2 -3 11 -6 20 -5 14 4 16 60 16 37 0 66 4 66 10 0 6 -29 10 -68 10
l-69 0 -12 41 c-7 23 -15 47 -18 55 -4 11 14 14 99 14 68 0 108 -4 116 -12z
m-2393 -427 c0 -177 -3 -264 -10 -253 -18 32 -11 522 8 522 1 0 2 -121 2 -269z
m2328 220 c30 -12 40 -36 27 -62 -9 -15 -22 -19 -65 -19 -50 0 -55 2 -55 23 0
12 -3 32 -6 45 -6 20 -3 22 34 22 22 0 52 -4 65 -9z m-2192 -206 l-6 -200 -7
125 c-4 70 -4 156 2 195 5 39 9 74 10 79 0 5 1 7 3 5 2 -2 1 -94 -2 -204z
m2259 150 c0 -57 -35 -85 -105 -85 -77 0 -70 24 8 28 61 3 87 24 87 69 0 13 2
23 5 23 3 0 5 -16 5 -35z m339 -62 l-2 -98 -10 82 c-9 75 -6 113 8 113 3 0 4
-44 4 -97z m-55 48 c7 -47 -3 -133 -15 -125 -12 7 -12 164 0 164 5 0 11 -18
15 -39z m-47 -83 c-2 -24 -4 -7 -4 37 0 44 2 63 4 43 2 -21 2 -57 0 -80z
m-2460 -130 c-1 -46 -3 -11 -3 77 0 88 2 125 3 83 2 -42 2 -114 0 -160z m2208
-458 c-25 -25 -28 -25 -184 -25 -88 0 -162 3 -166 7 -4 3 1 20 9 37 9 16 16
32 16 34 0 2 -43 -38 -95 -89 -52 -51 -109 -100 -127 -109 -30 -14 -29 -12 12
22 145 123 217 208 280 333 45 90 85 214 95 293 l7 57 42 0 c57 0 116 18 124
38 4 9 8 -116 10 -278 l2 -294 -25 -26z m-1918 373 c-3 -10 -5 -4 -5 12 0 17
2 24 5 18 2 -7 2 -21 0 -30z m43 -172 c23 -62 22 -83 -4 -62 -7 6 -19 45 -25
87 -12 85 -13 157 -1 83 4 -26 18 -74 30 -108z m-363 77 c-3 -7 -5 -2 -5 12 0
14 2 19 5 13 2 -7 2 -19 0 -25z m480 -272 c18 -20 18 -20 -7 -5 -28 18 -45 48
-55 94 -4 23 0 19 19 -19 14 -27 34 -58 43 -70z m-407 14 c0 -27 -4 -50 -10
-50 -5 0 -10 23 -10 50 0 28 5 50 10 50 6 0 10 -22 10 -50z m634 -179 c-10
-11 -156 116 -175 152 -6 11 32 -18 84 -64 52 -46 93 -86 91 -88z m-524 57
c20 -16 46 -18 221 -18 188 0 199 -1 209 -20 11 -20 8 -20 -205 -20 -216 0
-216 0 -240 25 -20 19 -25 34 -24 72 1 47 1 47 9 13 5 -19 18 -43 30 -52z
m1972 15 c-51 -2 -132 -2 -180 0 -48 1 -6 3 93 3 99 0 138 -2 87 -3z m-1482
-128 c0 -13 -36 -15 -244 -15 -217 0 -246 2 -265 18 -21 16 -11 17 243 14 226
-2 266 -5 266 -17z m73 -82 c-40 -2 -107 -2 -150 0 -43 1 -10 3 72 3 83 0 118
-2 78 -3z m317 -52 c29 -6 -49 -9 -213 -10 -170 -1 -256 2 -252 9 7 12 398 12
465 1z m740 -1 c58 -4 -59 -7 -300 -6 -219 0 -342 3 -275 6 174 9 465 9 575 0z"/>
<path d="M3390 2752 c-25 -8 -30 -24 -30 -89 0 -86 9 -93 124 -93 115 0 126 8
126 97 0 42 -5 64 -15 73 -15 13 -176 22 -205 12z m178 -84 l-3 -53 -82 -3
-83 -3 0 56 0 55 86 0 85 0 -3 -52z"/>
<path d="M2326 2794 c-88 -21 -178 -68 -223 -117 -51 -55 -149 -237 -179 -333
-31 -95 -40 -209 -24 -304 6 -41 13 -89 16 -106 6 -48 52 -164 86 -217 63 -98
182 -180 311 -214 90 -23 254 -21 337 6 158 50 295 172 374 333 66 133 79 196
74 343 -4 96 -10 133 -30 187 -34 92 -81 167 -153 246 l-60 66 48 -39 c89 -73
162 -187 198 -305 27 -87 32 -266 11 -359 -13 -59 -9 -80 8 -37 34 91 36 277
4 386 -68 230 -258 411 -488 465 -77 18 -232 18 -310 -1z m253 -85 c164 -29
305 -137 385 -297 66 -131 79 -307 32 -445 -26 -78 -77 -169 -109 -196 -9 -7
3 16 27 52 133 199 132 462 -3 654 -155 219 -418 282 -671 161 -150 -72 -243
-186 -285 -348 -23 -87 -17 -251 12 -331 82 -227 338 -390 565 -359 105 15
201 56 262 113 54 51 43 65 -15 18 -204 -163 -472 -145 -663 44 -178 176 -206
457 -67 674 98 152 314 247 503 221 300 -42 501 -353 423 -655 -14 -54 -30
-89 -113 -249 -40 -75 -152 -146 -281 -176 -71 -17 -200 -8 -276 19 -129 45
-254 155 -319 281 -43 83 -60 155 -59 255 0 189 77 349 216 452 82 60 124 81
210 103 85 22 136 24 226 9z m-527 -996 c38 -45 128 -124 184 -160 16 -10 14
-11 -11 -2 -95 33 -200 132 -244 232 -42 93 -46 121 -7 47 19 -36 54 -88 78
-117z m800 -63 c-44 -41 -116 -93 -89 -64 16 17 132 113 137 113 3 0 -19 -22
-48 -49z"/>
<path d="M2378 2595 c-131 -36 -235 -125 -297 -254 -32 -69 -36 -86 -39 -176
-6 -151 33 -251 138 -356 146 -146 380 -157 544 -26 23 18 53 41 69 50 63 40
125 161 141 275 9 63 -11 169 -45 239 -36 75 -115 164 -177 200 -96 56 -233
76 -334 48z m183 -15 c129 -24 248 -118 310 -245 33 -67 34 -74 34 -185 0
-110 -1 -118 -33 -180 -18 -36 -49 -83 -68 -105 l-35 -40 35 59 c57 95 71 147
71 266 0 100 -2 109 -34 175 -43 87 -121 167 -198 203 -52 24 -69 27 -168 27
-103 0 -114 -2 -180 -33 -38 -17 -61 -25 -50 -16 53 41 165 82 231 83 17 1 56
-4 85 -9z m14 -55 c75 -20 155 -72 196 -128 35 -47 69 -120 69 -145 0 -9 -11
9 -25 42 -33 80 -89 143 -166 185 -61 34 -69 36 -159 36 -85 0 -101 -3 -154
-30 -68 -34 -120 -90 -161 -172 -24 -48 -29 -74 -33 -149 -5 -108 6 -138 80
-219 132 -145 338 -150 466 -11 62 67 85 119 90 207 6 97 -14 161 -70 224 -53
60 -125 96 -204 103 -78 6 -125 -10 -183 -62 -32 -29 -41 -34 -30 -16 9 14 38
38 64 55 39 24 61 30 121 33 61 4 81 0 127 -21 74 -34 131 -88 163 -155 39
-81 38 -193 -1 -281 -34 -74 -103 -142 -183 -179 -194 -89 -438 60 -459 281
-17 186 115 372 288 406 67 13 99 12 164 -4z m-129 -95 c15 -6 33 -18 40 -28
16 -21 18 -66 4 -93 -8 -15 -7 -19 5 -19 23 0 55 -37 55 -65 0 -31 -33 -65
-62 -65 -25 0 -68 37 -68 59 0 8 12 28 28 44 23 25 24 28 5 18 -36 -18 -63
-13 -95 19 -25 26 -29 36 -24 63 6 33 47 77 71 77 7 0 26 -5 41 -10z m-317
-97 c-58 -115 -61 -241 -8 -355 25 -53 27 -60 10 -43 -12 11 -30 46 -41 77
-37 105 -21 249 36 340 35 56 37 47 3 -19z m601 -250 c-9 -53 -32 -92 -77
-134 -54 -52 -98 -71 -175 -77 -117 -8 -216 49 -264 153 -34 73 -29 88 9 25
33 -55 106 -120 135 -120 11 0 4 13 -24 43 -64 67 -73 85 -20 40 84 -74 175
-83 278 -30 52 27 69 42 96 87 17 30 32 68 33 85 l1 30 8 -32 c4 -18 4 -50 0
-70z m-543 35 c-3 -7 -5 -2 -5 12 0 14 2 19 5 13 2 -7 2 -19 0 -25z m133 -301
c59 -29 73 -32 155 -31 67 0 104 6 144 22 75 29 78 19 5 -15 -51 -24 -71 -28
-154 -28 -89 0 -99 2 -156 33 -34 18 -77 50 -95 70 l-34 36 35 -27 c19 -15 64
-42 100 -60z m-115 23 c21 -22 37 -40 34 -40 -3 0 -23 18 -44 40 -21 22 -37
40 -34 40 3 0 23 -18 44 -40z"/>
<path d="M1939 2508 c-39 -54 -76 -127 -101 -197 -25 -73 -39 -221 -29 -296 8
-56 8 -53 10 50 1 61 8 140 16 177 15 74 81 222 121 275 14 18 23 33 20 33 -3
0 -20 -19 -37 -42z"/>
<path d="M3199 2246 c-7 -35 2 -176 12 -171 11 7 11 142 0 170 -8 19 -9 19
-12 1z"/>
<path d="M1394 1079 c-14 -23 25 -29 194 -29 164 0 212 7 212 30 0 15 -397 13
-406 -1z"/>
<path d="M2024 1002 c-202 -101 -225 -97 465 -99 544 -1 631 2 631 25 0 5 -24
21 -52 37 -29 15 -82 44 -117 63 l-64 35 -369 1 -368 1 -126 -63z m591 8 c-3
-6 -48 -10 -100 -10 -52 0 -97 4 -100 10 -4 6 32 10 100 10 68 0 104 -4 100
-10z"/>
</g>
</svg>